<?xml version="1.0" encoding="utf-8"?>

<!DOCTYPE svg PUBLIC "-//W3C//DTD SVG 1.1//EN" "http://www.w3.org/Graphics/SVG/1.1/DTD/svg11.dtd">
<!-- Uploaded to: SVG Repo, www.svgrepo.com, Generator: SVG Repo Mixer Tools -->
<svg version="1.1" id="_x32_" xmlns="http://www.w3.org/2000/svg" xmlns:xlink="http://www.w3.org/1999/xlink" 
	 width="800px" height="800px" viewBox="0 0 512 512"  xml:space="preserve">
<style type="text/css">
<![CDATA[
	.st0{fill:#AA46EF;}
]]>
</style>
<g>
	<path class="st0" d="M501.419,355.229l-37.875,4c-5.516,0.594-12.766-2.531-16.125-6.938l-143.157-187.75
		c-3.359-4.406-8.359-4.094-11.109,0.719L167.747,384.354c-2.75,4.797-0.5,9.281,5,9.938l234.406,28.359
		c5.5,0.656,11.859,5.328,14.141,10.375l15.719,34.703c4.453,9.094,15,7.156,16.875-1.203c0,0,6.203-25.828,19.344-48.781
		c13.125-22.938,35.703-47.375,35.703-47.375C515.169,364.525,511.528,354.447,501.419,355.229z"/>
	<polygon class="st0" points="257.668,166.697 178.153,38.275 160.497,49.213 240.028,177.619 	"/>
	<polygon class="st0" points="-0.003,349.494 151.012,353.041 151.497,332.307 0.497,328.744 	"/>
</g>
</svg>